<svg width="194" height="32" viewBox="0 0 194 32" fill="none" xmlns="http://www.w3.org/2000/svg">
<path d="M14.1631 4.26548C14.8573 2.65355 17.1427 2.65356 17.8369 4.26548L19.8564 8.95491C20.1459 9.62726 20.7797 10.0877 21.5086 10.1553L26.5925 10.6268C28.3401 10.7889 29.0463 12.9625 27.7278 14.1208L23.892 17.4906C23.342 17.9737 23.0999 18.7187 23.2609 19.4329L24.3835 24.4137C24.7693 26.1258 22.9203 27.4692 21.4113 26.5731L17.0211 23.9663C16.3917 23.5926 15.6083 23.5926 14.9789 23.9663L10.5887 26.5731C9.07966 27.4692 7.23066 26.1258 7.61654 24.4137L8.73912 19.4329C8.90007 18.7187 8.658 17.9737 8.10803 17.4906L4.27217 14.1208C2.95365 12.9625 3.65991 10.7889 5.40745 10.6268L10.4914 10.1553C11.2203 10.0877 11.8541 9.62726 12.1436 8.95491L14.1631 4.26548Z" fill="#F2C94C"/>
<path d="M46.1631 4.26548C46.8573 2.65355 49.1427 2.65356 49.8369 4.26548L51.8564 8.95491C52.1459 9.62726 52.7797 10.0877 53.5086 10.1553L58.5925 10.6268C60.3401 10.7889 61.0463 12.9625 59.7278 14.1208L55.892 17.4906C55.342 17.9737 55.0999 18.7187 55.2609 19.4329L56.3835 24.4137C56.7693 26.1258 54.9203 27.4692 53.4113 26.5731L49.0211 23.9663C48.3917 23.5926 47.6083 23.5926 46.9789 23.9663L42.5887 26.5731C41.0797 27.4692 39.2307 26.1258 39.6165 24.4137L40.7391 19.4329C40.9001 18.7187 40.658 17.9737 40.108 17.4906L36.2722 14.1208C34.9537 12.9625 35.6599 10.7889 37.4074 10.6268L42.4914 10.1553C43.2203 10.0877 43.8541 9.62726 44.1436 8.95491L46.1631 4.26548Z" fill="#F2C94C"/>
<path d="M78.1631 4.26548C78.8573 2.65355 81.1427 2.65356 81.8369 4.26548L83.8564 8.95491C84.1459 9.62726 84.7797 10.0877 85.5086 10.1553L90.5925 10.6268C92.3401 10.7889 93.0463 12.9625 91.7278 14.1208L87.892 17.4906C87.342 17.9737 87.0999 18.7187 87.2609 19.4329L88.3835 24.4137C88.7693 26.1258 86.9203 27.4692 85.4113 26.5731L81.0211 23.9663C80.3917 23.5926 79.6083 23.5926 78.9789 23.9663L74.5887 26.5731C73.0797 27.4692 71.2307 26.1258 71.6165 24.4137L72.7391 19.4329C72.9001 18.7187 72.658 17.9737 72.108 17.4906L68.2722 14.1208C66.9537 12.9625 67.6599 10.7889 69.4074 10.6268L74.4914 10.1553C75.2203 10.0877 75.8541 9.62726 76.1436 8.95491L78.1631 4.26548Z" fill="#F2C94C"/>
<path d="M110.163 4.26548C110.857 2.65355 113.143 2.65356 113.837 4.26548L115.856 8.95491C116.146 9.62726 116.78 10.0877 117.509 10.1553L122.593 10.6268C124.34 10.7889 125.046 12.9625 123.728 14.1208L119.892 17.4906C119.342 17.9737 119.1 18.7187 119.261 19.4329L120.383 24.4137C120.769 26.1258 118.92 27.4692 117.411 26.5731L113.021 23.9663C112.392 23.5926 111.608 23.5926 110.979 23.9663L106.589 26.5731C105.08 27.4692 103.231 26.1258 103.617 24.4137L104.739 19.4329C104.9 18.7187 104.658 17.9737 104.108 17.4906L100.272 14.1208C98.9537 12.9625 99.6599 10.7889 101.407 10.6268L106.491 10.1553C107.22 10.0877 107.854 9.62726 108.144 8.95491L110.163 4.26548Z" fill="#F2C94C"/>
<path d="M142.163 4.26548C142.857 2.65355 145.143 2.65356 145.837 4.26549L147.856 8.95491C148.146 9.62726 148.78 10.0877 149.509 10.1553L154.593 10.6268C156.34 10.7889 157.046 12.9625 155.728 14.1208L151.892 17.4906C151.342 17.9737 151.1 18.7187 151.261 19.4329L152.384 24.4137C152.769 26.1258 150.92 27.4692 149.411 26.5731L145.021 23.9663C144.392 23.5926 143.608 23.5926 142.979 23.9663L138.589 26.5731C137.08 27.4692 135.231 26.1258 135.617 24.4137L136.739 19.4329C136.9 18.7187 136.658 17.9737 136.108 17.4906L132.272 14.1208C130.954 12.9625 131.66 10.7889 133.408 10.6268L138.492 10.1553C139.22 10.0877 139.854 9.62726 140.144 8.95491L142.163 4.26548Z" fill="#C4C4C4"/>
<path d="M174.352 22H176.592V19.728H178V17.776H176.592V10.48H173.984L168.752 17.968V19.728H174.352V22ZM171.216 17.776L174.496 12.88V17.776H171.216ZM182.034 20.8C182.034 20.064 181.458 19.488 180.674 19.488C179.858 19.488 179.282 20.064 179.282 20.8C179.282 21.536 179.858 22.112 180.674 22.112C181.458 22.112 182.034 21.536 182.034 20.8ZM184.19 10.304V17.152H186.334C186.574 16.432 187.166 15.92 188.094 15.92C189.358 15.92 190.014 16.64 190.014 17.952C190.014 19.184 189.422 20.112 188.11 20.112C187.022 20.112 186.366 19.52 186.174 18.704H183.998C184.19 20.608 185.63 22 188.142 22C190.798 22 192.174 20.304 192.174 17.92C192.174 16.112 191.246 14.064 188.526 14.064C187.55 14.064 186.67 14.48 186.238 15.008V12.272H191.422V10.304H184.19Z" fill="#2F294D"/>
</svg>
